<svg width="10" height="10" viewBox="0 0 10 10" fill="none" xmlns="http://www.w3.org/2000/svg">
<path fill-rule="evenodd" clip-rule="evenodd" d="M0.416992 5.00033C0.416992 2.45866 2.45866 0.416992 5.00033 0.416992C7.54199 0.416992 9.58366 2.45866 9.58366 5.00033C9.58366 7.54199 7.54199 9.58366 5.00033 9.58366C2.45866 9.58366 0.416992 7.54199 0.416992 5.00033ZM1.25031 5C1.25031 7.08333 2.91697 8.75 5.00031 8.75C7.08364 8.75 8.75031 7.08333 8.75031 5C8.75031 2.91667 7.08364 1.25 5.00031 1.25C2.91697 1.25 1.25031 2.91667 1.25031 5Z" fill="white"/>
<mask id="mask0_310_1146" style="mask-type:alpha" maskUnits="userSpaceOnUse" x="0" y="0" width="10" height="10">
<path fill-rule="evenodd" clip-rule="evenodd" d="M0.416992 5.00033C0.416992 2.45866 2.45866 0.416992 5.00033 0.416992C7.54199 0.416992 9.58366 2.45866 9.58366 5.00033C9.58366 7.54199 7.54199 9.58366 5.00033 9.58366C2.45866 9.58366 0.416992 7.54199 0.416992 5.00033ZM1.25031 5C1.25031 7.08333 2.91697 8.75 5.00031 8.75C7.08364 8.75 8.75031 7.08333 8.75031 5C8.75031 2.91667 7.08364 1.25 5.00031 1.25C2.91697 1.25 1.25031 2.91667 1.25031 5Z" fill="white"/>
</mask>
<g mask="url(#mask0_310_1146)">
<rect width="10" height="10" fill="white"/>
</g>
</svg>
