<svg width="21" height="15" viewBox="0 0 21 15" fill="none" xmlns="http://www.w3.org/2000/svg">
<path d="M0 5.20312H21V9.79688H0V5.20312Z" fill="#F9CB38"/>
<path d="M17.7188 0.28125H3.28125C1.10677 0.28125 0 1.89727 0 3.89062V5.20312H21V3.89062C21 1.89727 19.8932 0.28125 17.7188 0.28125Z" fill="#EC1C24"/>
<path d="M0 11.1094C0 13.1027 1.10677 14.7188 3.28125 14.7188H17.7188C19.8932 14.7188 21 13.1027 21 11.1094V9.79688H0V11.1094Z" fill="#137A08"/>
<path d="M10.4272 5.47363L11.0661 6.76809L12.4951 6.97743L11.4618 7.98543L11.7059 9.4072L10.4272 8.73552L9.14884 9.4072L9.39297 7.98543L8.35938 6.97743L9.78869 6.76809L10.4272 5.47363Z" fill="#25333A"/>
</svg>
