<svg width="18" height="18" viewBox="0 0 18 18" fill="none" xmlns="http://www.w3.org/2000/svg">
<path fill-rule="evenodd" clip-rule="evenodd" d="M16.2 6.1626L9.45 0.918558C9.15 0.693814 8.775 0.693814 8.55 0.918558L1.8 6.1626C1.575 6.31243 1.5 6.53717 1.5 6.76192V15.0026C1.5 16.2761 2.475 17.25 3.75 17.25H14.25C15.525 17.25 16.5 16.2761 16.5 15.0026V6.76192C16.5 6.53717 16.425 6.31243 16.2 6.1626ZM10.5 9.75879V15.752H7.5V9.75879H10.5ZM14.25 15.7521C14.7 15.7521 15 15.4525 15 15.003V7.13691L9 2.49219L3 7.13691V15.003C3 15.4525 3.3 15.7521 3.75 15.7521H6V9.00978C6 8.56029 6.3 8.26063 6.75 8.26063H11.25C11.7 8.26063 12 8.56029 12 9.00978V15.7521H14.25Z" fill="#262626"/>
<mask id="mask0_282_2609" style="mask-type:alpha" maskUnits="userSpaceOnUse" x="1" y="0" width="16" height="18">
<path fill-rule="evenodd" clip-rule="evenodd" d="M16.2 6.1626L9.45 0.918558C9.15 0.693814 8.775 0.693814 8.55 0.918558L1.8 6.1626C1.575 6.31243 1.5 6.53717 1.5 6.76192V15.0026C1.5 16.2761 2.475 17.25 3.75 17.25H14.25C15.525 17.25 16.5 16.2761 16.5 15.0026V6.76192C16.5 6.53717 16.425 6.31243 16.2 6.1626ZM10.5 9.75879V15.752H7.5V9.75879H10.5ZM14.25 15.7521C14.7 15.7521 15 15.4525 15 15.003V7.13691L9 2.49219L3 7.13691V15.003C3 15.4525 3.3 15.7521 3.75 15.7521H6V9.00978C6 8.56029 6.3 8.26063 6.75 8.26063H11.25C11.7 8.26063 12 8.56029 12 9.00978V15.7521H14.25Z" fill="white"/>
</mask>
<g mask="url(#mask0_282_2609)">
<rect width="18" height="18" fill="#fff"/>
</g>
</svg>
